<svg width="0" height="0" class="hidden">
  <symbol fill="none" xmlns="http://www.w3.org/2000/svg" viewBox="0 0 20 20" id="category">
    <path d="M6.013 10.945A2.986 2.986 0 018.99 13.94v3.063A2.986 2.986 0 016.013 20H2.976A2.986 2.986 0 010 17.005V13.94a2.986 2.986 0 012.976-2.996h3.037zm11.012 0c1.645 0 2.975 1.343 2.975 2.996v3.063C20 18.657 18.67 20 17.025 20h-3.038a2.986 2.986 0 01-2.976-2.995V13.94a2.985 2.985 0 012.976-2.996h3.038zM6.013 12.34H2.976a1.59 1.59 0 00-1.58 1.601v3.063c0 .886.708 1.6 1.58 1.6h3.037a1.59 1.59 0 001.58-1.6v-3.063a1.59 1.59 0 00-1.58-1.6zm11.012 0h-3.038a1.59 1.59 0 00-1.58 1.601v3.063c0 .886.708 1.6 1.58 1.6h3.038c.87 0 1.58-.714 1.58-1.6v-3.063a1.59 1.59 0 00-1.58-1.6zm0-12.34C18.67 0 20 1.343 20 2.996V6.06c0 1.652-1.331 2.995-2.975 2.995h-3.038a2.986 2.986 0 01-2.976-2.995V2.996A2.986 2.986 0 0113.987 0h3.038zM6.013 0A2.986 2.986 0 018.99 2.996V6.06a2.986 2.986 0 01-2.976 2.995H2.976A2.985 2.985 0 010 6.06V2.996A2.986 2.986 0 012.976 0h3.037zm11.012 1.395h-3.038a1.59 1.59 0 00-1.58 1.6V6.06c0 .884.708 1.6 1.58 1.6h3.038c.87 0 1.58-.716 1.58-1.6V2.996c0-.886-.71-1.6-1.58-1.6zm-11.012 0H2.976a1.59 1.59 0 00-1.58 1.6V6.06c0 .884.709 1.6 1.58 1.6h3.037a1.59 1.59 0 001.58-1.6V2.996c0-.886-.708-1.6-1.58-1.6z" fill="#0351DF"></path>
  </symbol>
  <symbol fill="none" xmlns="http://www.w3.org/2000/svg" viewBox="0 0 24 24" id="chart">
    <path d="M16.359 2C19.75 2 22 4.417 22 7.893v8.214C22 19.583 19.75 22 16.359 22H7.64C4.25 22 2 19.583 2 16.107V7.893C2 4.42 4.256 2 7.641 2h8.718zm0 1.395H7.64c-2.592 0-4.246 1.774-4.246 4.498v8.214c0 2.727 1.649 4.498 4.246 4.498h8.718c2.597 0 4.246-1.77 4.246-4.498V7.893c0-2.727-1.649-4.498-4.246-4.498zM7.694 9.63c.354 0 .645.263.692.604l.006.094v6.382a.698.698 0 01-1.389.094l-.006-.094v-6.382c0-.385.312-.697.697-.697zm4.341-3.053c.354 0 .646.262.692.603l.006.095v9.435a.698.698 0 01-1.389.094l-.006-.094V7.274c0-.386.312-.698.697-.698zm4.27 6.426c.354 0 .646.262.692.603l.006.094v3.01a.698.698 0 01-1.389.094l-.006-.094V13.7c0-.385.312-.697.698-.697z" fill="#0351DF"></path>
  </symbol>
  <symbol fill="none" xmlns="http://www.w3.org/2000/svg" viewBox="0 0 24 24" id="edit">
    <path d="M21.341 19.209c.364 0 .659.289.659.646a.65.65 0 01-.57.64l-.088.005H14.47a.652.652 0 01-.659-.645.65.65 0 01.57-.64l.089-.006h6.87zM14.66 4.417a3.24 3.24 0 014.516 0l1.294 1.268a3.087 3.087 0 010 4.427l-9.728 9.537a2.996 2.996 0 01-2.098.85H4.659A.652.652 0 014 19.84l.1-3.941c.02-.745.331-1.455.869-1.982l9.69-9.5zm-.753 2.562L5.9 14.829a1.605 1.605 0 00-.483 1.101l-.084 3.278h3.31c.39 0 .764-.133 1.06-.376l.106-.096 8.046-7.887-3.949-3.87zm4.338-1.65a1.903 1.903 0 00-2.653 0l-.753.737 3.948 3.87.752-.737c.692-.678.73-1.755.115-2.477l-.115-.124-1.294-1.268z" fill="#0351DF"></path>
  </symbol>
  <symbol fill="none" xmlns="http://www.w3.org/2000/svg" viewBox="0 0 20 20" id="image-example">
    <path d="M14.334 0C17.724 0 20 2.378 20 5.917v8.166C20 17.622 17.723 20 14.333 20H5.666C2.276 20 0 17.622 0 14.083V5.917C0 2.378 2.277 0 5.666 0h8.668zm1.103 10.55c-1.072-.669-1.9.27-2.123.57-.215.29-.4.61-.595.93-.477.79-1.023 1.7-1.968 2.23-1.374.76-2.417.06-3.167-.45-.282-.19-.555-.37-.828-.49-.671-.29-1.276.04-2.173 1.18-.47.596-.937 1.186-1.41 1.774-.282.352-.215.895.167 1.13.608.375 1.35.576 2.189.576h8.427a4.51 4.51 0 001.407-.214c1.024-.334 1.836-1.1 2.26-2.111.359-.85.533-1.882.198-2.741a2.255 2.255 0 00-.513-.783c-.614-.61-1.189-1.18-1.871-1.6zM6.499 4A2.502 2.502 0 004 6.5C4 7.878 5.12 9 6.499 9a2.503 2.503 0 002.499-2.5c0-1.378-1.121-2.5-2.5-2.5z" fill="#7082AF"></path>
  </symbol>
  <symbol fill="#ffffff" xmlns="http://www.w3.org/2000/svg" viewBox="0 0 20 28" id="logo">
    <path fill-rule="evenodd" clip-rule="evenodd" d="M17.391 8.615L2.766 22.191c.209.21.41.413.65.608l5.773 4.924c.435.37 1.07.37 1.505 0 1.04-.894 3.073-2.632 5.49-4.692 4.644-3.968 5.053-9.79 1.207-14.416z" fill="#0052CC"></path>
    <path fill-rule="evenodd" clip-rule="evenodd" d="M2.652 8.617c-3.63 4.033-3.498 9.882.182 13.568l7.265-6.669c4.445-4.082 4.788-11.38.4-15.516 0 0-4.217 4.583-7.847 8.617z" fill="#2684FF"></path>
    <defs>
      <linearGradient id="paint0_linear" x1="4.595" y1="16.324" x2="15.397" y2="18.209" gradientUnits="userSpaceOnUse">
        <stop stop-color="#0052CC"></stop>
        <stop offset="1" stop-color="#2684FF"></stop>
      </linearGradient>
    </defs>
  </symbol>
  <symbol fill="none" xmlns="http://www.w3.org/2000/svg" viewBox="0 0 20 20" id="send">
    <path d="M19.705 2.591l-.037.141-4.645 15.64c-.461 1.55-2.483 1.86-3.397.581l-.087-.133-3.896-6.454L1.167 8.38c-1.376-.847-1.15-2.894.32-3.447l.15-.05L17.294.327c1.415-.41 2.722.859 2.41 2.264zm-1.92-.838l-.073.015L2.056 6.323a.432.432 0 00-.168.73l.066.05 6.124 3.769 5.245-5.28a.75.75 0 01.977-.075l.084.072a.75.75 0 01.076.976l-.073.085-5.252 5.286 3.688 6.109c.176.29.586.262.732-.024l.03-.076 4.645-15.64a.427.427 0 00-.445-.552z" fill="#0351DF"></path>
  </symbol>
  <symbol fill="none" xmlns="http://www.w3.org/2000/svg" viewBox="0 0 24 24" id="setting">
    <path d="M12.616 2c.71 0 1.388.28 1.882.779.495.498.762 1.17.74 1.799l.009.147c.017.146.065.286.144.416.152.255.402.44.695.514.292.074.602.032.896-.137l.164-.082c1.23-.567 2.705-.117 3.387 1.043l.613 1.043c.017.027.03.056.043.085l.057.111a2.537 2.537 0 01-.884 3.204l-.257.159a1.102 1.102 0 00-.33.356 1.093 1.093 0 00-.117.847c.078.287.27.53.56.695l.166.105c.505.346.869.855 1.028 1.439.18.659.083 1.36-.272 1.957l-.66 1.077-.1.152c-.774 1.092-2.279 1.425-3.427.776l-.136-.069a1.19 1.19 0 00-.435-.1 1.128 1.128 0 00-1.143 1.154l-.008.171C15.12 20.971 13.985 22 12.616 22h-1.235c-1.449 0-2.623-1.15-2.622-2.525l-.008-.147a1.045 1.045 0 00-.148-.422 1.125 1.125 0 00-.688-.519 1.19 1.19 0 00-.9.134l-.177.087a2.674 2.674 0 01-1.794.129 2.606 2.606 0 01-1.57-1.215l-.637-1.078-.085-.16a2.527 2.527 0 011.03-3.296l.104-.065c.309-.21.494-.554.494-.923 0-.401-.219-.772-.6-.989l-.156-.097a2.542 2.542 0 01-.764-3.407l.65-1.045a2.646 2.646 0 013.552-.96l.134.07c.135.06.283.093.425.094.626 0 1.137-.492 1.146-1.124l.009-.194a2.54 2.54 0 01.752-1.593A2.642 2.642 0 0111.381 2h1.235zm0 1.448h-1.235c-.302 0-.592.118-.806.328a1.091 1.091 0 00-.325.66l-.013.306C10.133 6.07 9 7.114 7.613 7.114a2.619 2.619 0 01-1.069-.244l-.192-.1a1.163 1.163 0 00-1.571.43l-.65 1.045a1.103 1.103 0 00.312 1.464l.261.162A2.556 2.556 0 015.858 12c0 .845-.424 1.634-1.156 2.13l-.156.096c-.512.29-.71.918-.472 1.412l.056.107.63 1.063a1.16 1.16 0 001.442.494l.109-.052a2.652 2.652 0 011.986-.261 2.591 2.591 0 011.925 2.21l.02.353c.062.563.548 1 1.14 1h1.234c.598 0 1.094-.45 1.14-1l.006-.11a2.536 2.536 0 01.766-1.823 2.65 2.65 0 011.877-.75c.35.009.695.086 1.048.241l.316.158c.496.213 1.084.058 1.382-.361l.073-.111.644-1.052a1.1 1.1 0 00-.303-1.455l-.273-.17a2.563 2.563 0 01-1.062-1.462 2.513 2.513 0 01.265-1.944c.19-.326.451-.606.792-.838l.161-.099c.512-.293.71-.921.473-1.417l-.07-.134-.013-.028-.585-.995a1.157 1.157 0 00-1.34-.513l-.111.044-.104.051a2.661 2.661 0 01-1.984.272 2.607 2.607 0 01-1.596-1.18 2.488 2.488 0 01-.342-1.021l-.014-.253a1.11 1.11 0 00-.323-.814 1.158 1.158 0 00-.823-.34zm-.613 5.284c1.842 0 3.336 1.463 3.336 3.268 0 1.805-1.494 3.268-3.336 3.268-1.842 0-3.336-1.463-3.336-3.268 0-1.805 1.494-3.268 3.336-3.268zm0 1.448c-1.026 0-1.858.815-1.858 1.82 0 1.005.832 1.82 1.858 1.82 1.026 0 1.858-.815 1.858-1.82 0-1.005-.832-1.82-1.858-1.82z" fill="#0351DF"></path>
  </symbol>
  <symbol fill="none" xmlns="http://www.w3.org/2000/svg" viewBox="0 0 20 16" id="show">
    <path d="M10.002 0l.286.005c3.931.13 7.462 2.896 9.509 7.38l.14.314a.74.74 0 01.002.595C17.871 13.077 14.14 16 9.998 16l-.286-.005c-3.937-.13-7.466-2.902-9.508-7.378l-.143-.323a.74.74 0 010-.588C2.129 2.923 5.86 0 10.002 0zm.007 1.49c-3.318 0-6.398 2.283-8.282 6.176L1.57 8l.17.36c1.786 3.675 4.643 5.913 7.74 6.133l.267.013.257.004.255-.004c3.298-.12 6.34-2.505 8.16-6.482L18.43 8c-1.776-3.893-4.717-6.264-7.914-6.49l-.267-.014-.239-.006zm-.01 2.623c2.161 0 3.912 1.74 3.912 3.887 0 2.146-1.751 3.886-3.912 3.886-2.16 0-3.91-1.74-3.91-3.886 0-2.147 1.75-3.887 3.91-3.887zm0 1.49A2.403 2.403 0 007.59 8 2.403 2.403 0 0010 10.396 2.404 2.404 0 0012.412 8 2.404 2.404 0 0010 5.604z" fill="#0351DF"></path>
  </symbol>
  <symbol fill="none" xmlns="http://www.w3.org/2000/svg" viewBox="0 0 11 14" id="play">
    <path d="M10.053 8.698l-6.53 4.063a1.999 1.999 0 01-3.056-1.698V2.937a2 2 0 013.056-1.698l6.53 4.063a2 2 0 010 3.396z" fill="#0FBD00"></path>
  </symbol>
  <symbol fill="none" xmlns="http://www.w3.org/2000/svg" viewBox="0 0 14 18" id="git">
    <path d="M13.25 5.25a2.5 2.5 0 10-3.76 2.158c-.09 1.136-.785 1.445-2.93 1.891-.694.144-1.404.291-2.06.544v-4.93a2.5 2.5 0 10-2.5 0v8.173a2.5 2.5 0 102.517.01c.093-.703.625-.95 2.55-1.349 1.07-.221 2.178-.45 3.116-1.052 1.133-.726 1.74-1.828 1.81-3.277A2.5 2.5 0 0013.25 5.25zm-10-3.75a1.25 1.25 0 110 2.5 1.25 1.25 0 010-2.5zm0 15a1.25 1.25 0 110-2.5 1.25 1.25 0 010 2.5zm7.5-10a1.25 1.25 0 110-2.5 1.25 1.25 0 010 2.5z" fill="#0351DF"></path>
  </symbol>
  <symbol  viewBox="0 0 20 8" fill="none" xmlns="http://www.w3.org/2000/svg" id="parabola">
    <path fill-rule="evenodd" clip-rule="evenodd" d="M10 8C13 8 15.9999 0 20 0H0C3.9749 0 7 8 10 8Z" fill="#2F287F"/>
  </symbol>
  <symbol viewBox="0 0 16 16" fill="none" xmlns="http://www.w3.org/2000/svg" id="trash">
    <path d="M14.6665 2.66666H13.3331H11.3331V0.666656C11.3332 0.298656 11.0352 0 10.6665 0H5.33316C4.9645 0 4.6665 0.298656 4.6665 0.666656V2.66666H2.6665H1.33316C0.964504 2.66666 0.666504 2.96531 0.666504 3.33331C0.666504 3.70131 0.964473 4 1.33316 4H1.99982V14C1.99982 15.1027 2.89716 16 3.99982 16H11.9998C13.1025 16 13.9998 15.1027 13.9998 14V4H14.6665C15.0351 4 15.3331 3.70134 15.3331 3.33334C15.3331 2.96534 15.0352 2.66666 14.6665 2.66666ZM5.99982 1.33334H9.99982V2.66669H5.99982V1.33334ZM12.6665 14C12.6665 14.3673 12.3678 14.6667 11.9998 14.6667H3.99982C3.63182 14.6667 3.33316 14.3673 3.33316 14V4H5.33316H10.6665H12.6665V14H12.6665Z" fill="white"/>
    <path d="M6.00015 5.3334C5.6315 5.3334 5.3335 5.63205 5.3335 6.00005V12C5.3335 12.368 5.6315 12.6667 6.00015 12.6667C6.36881 12.6667 6.66681 12.368 6.66681 12V6.00005C6.66681 5.63205 6.36881 5.3334 6.00015 5.3334Z" fill="white"/>
    <path d="M10.0002 5.3334C9.6315 5.3334 9.3335 5.63205 9.3335 6.00005V12C9.3335 12.368 9.6315 12.6667 10.0002 12.6667C10.3688 12.6667 10.6668 12.368 10.6668 12V6.00005C10.6668 5.63205 10.3688 5.3334 10.0002 5.3334Z" fill="white"/>
  </symbol>
  <symbol width="10" height="7" viewBox="0 0 10 7" fill="none" xmlns="http://www.w3.org/2000/svg" id="down">
    <path d="M0.612601 1.03842C0.961401 0.68162 1.447 0.65362 1.8734 1.03842L4.9998 4.03602L8.1262 1.03842C8.5526 0.653621 9.039 0.681621 9.3854 1.03842C9.7342 1.39442 9.7118 1.99602 9.3854 2.33042C9.0606 2.66482 5.6294 5.93202 5.6294 5.93202C5.54769 6.0167 5.44976 6.08406 5.34145 6.13006C5.23314 6.17606 5.11668 6.19977 4.999 6.19977C4.88133 6.19977 4.76486 6.17606 4.65655 6.13006C4.54824 6.08406 4.45031 6.0167 4.3686 5.93202C4.3686 5.93202 0.939001 2.66482 0.612601 2.33042C0.285401 1.99602 0.263801 1.39442 0.612601 1.03842Z" fill="white"/>
  </symbol>
  <symbol width="10" height="7" viewBox="0 0 10 7" fill="none" xmlns="http://www.w3.org/2000/svg" id="up">
    <path d="M9.3874 5.96158C9.0386 6.31838 8.553 6.34638 8.1266 5.96158L5.0002 2.96398L1.8738 5.96158C1.4474 6.34638 0.960998 6.31838 0.614598 5.96158C0.265798 5.60558 0.288198 5.00398 0.614598 4.66958C0.939398 4.33518 4.3706 1.06798 4.3706 1.06798C4.45231 0.983296 4.55024 0.915944 4.65855 0.869942C4.76686 0.82394 4.88332 0.800232 5.001 0.800232C5.11867 0.800232 5.23514 0.82394 5.34345 0.869942C5.45176 0.915944 5.54969 0.983296 5.6314 1.06798C5.6314 1.06798 9.061 4.33518 9.3874 4.66958C9.7146 5.00398 9.7362 5.60558 9.3874 5.96158Z" fill="white"/>
  </symbol>

</svg>